<svg version="1.2" xmlns="http://www.w3.org/2000/svg" viewBox="0 0 106 106" width="106" height="106">
	<title>New Project</title>
	<style>
		.s0 { fill: #c4e2ff }
		.s1 { fill: #000000 }
		.s2 { fill: #24609b }
	</style>
	<path id="Shape 1" class="s0" d="m52 96h2v10h-2zm0-96h2v10h-2zm-42 52v2h-10v-2zm86 2v-2h10v2zm-47.4 41.8l2 0.1-0.8 10-2-0.1zm7.6-95.7l2 0.1-0.8 10-2-0.2zm-46 48.6l-0.1 2-10-0.8 0.2-2zm85.6 8.7l0.1-2 10 0.8-0.2 2zm-43.8 38.6h2v10h-2zm0-96h2v10h-2zm-42 52v2h-10v-2zm86 2v-2h10v2zm-47.3 41.8l2 0.2-0.8 10-2-0.2zm7.5-95.7l2 0.1-0.8 10-2-0.1zm-45.9 48.5l-0.2 2-10-0.8 0.2-2zm85.6 8.8l0.1-2 10 0.8-0.1 1.9zm-50.6 38l2 0.3-1.5 9.9-2-0.3zm15-94.9l2 0.4-1.6 9.8-2-0.3zm-49.6 44.8l-0.3 2-9.9-1.6 0.3-1.9zm84.7 15.4l0.3-2 9.9 1.6-0.4 1.9zm-53.3 33.9l2 0.5-2.4 9.7-1.9-0.5zm22.4-93.3l1.9 0.5-2.3 9.7-1.9-0.5zm-53 40.8l-0.5 1.9-9.7-2.3 0.5-2zm83.1 22.1l0.5-2 9.7 2.3-0.5 2zm-49.3 31.3l2 0.3-1.5 9.9-2-0.3zm15-94.8l2 0.3-1.6 9.8-2-0.3zm-49.6 44.8l-0.3 2-9.9-1.6 0.3-1.9zm84.7 15.4l0.3-2 9.9 1.6-0.4 1.9zm-53.3 33.9l2 0.5-2.4 9.7-1.9-0.5zm22.4-93.3l1.9 0.5-2.3 9.7-1.9-0.5zm-53 40.8l-0.5 1.9-9.7-2.3 0.5-2zm83.1 22.1l0.5-2 9.7 2.3-0.5 2zm-55.8 29.6l1.9 0.6-3.1 9.5-1.9-0.6zm29.7-91.3l1.9 0.6-3.1 9.5-1.9-0.6zm-56 36.5l-0.6 1.9-9.5-3.1 0.6-1.9zm81.2 28.4l0.6-1.9 9.5 3.1-0.6 1.9zm-58 25.1l1.9 0.8-3.9 9.2-1.8-0.7zm36.7-88.7l1.9 0.8-3.9 9.2-1.8-0.8zm-58.7 32l-0.8 1.8-9.2-3.8 0.7-1.8zm78.7 34.7l0.8-1.8 9.2 3.8-0.7 1.9zm-53.6 23.2l1.9 0.6-3.1 9.5-1.9-0.6zm29.7-91.3l1.9 0.6-3.1 9.5-1.9-0.6zm-56 36.5l-0.7 1.9-9.5-3.1 0.7-1.9zm81.1 28.4l0.6-1.9 9.6 3.1-0.7 1.9zm-57.9 25.1l1.8 0.8-3.8 9.2-1.9-0.7zm36.8-88.7l1.8 0.8-3.8 9.2-1.8-0.8zm-58.7 32l-0.8 1.8-9.2-3.8 0.7-1.8zm78.7 34.7l0.8-1.8 9.2 3.8-0.8 1.9zm-59.7 20.4l1.8 0.9-4.6 9-1.8-1zm43.6-85.5l1.8 0.9-4.5 8.9-1.8-0.9zm-61 27.3l-0.9 1.8-9-4.6 0.9-1.8zm75.8 40.9l0.9-1.8 8.9 4.5-0.9 1.8zm-61.2 15.7l1.7 1.1-5.2 8.5-1.7-1zm50.1-81.9l1.7 1.1-5.2 8.5-1.7-1.1zm-63 22.4l-1 1.7-8.5-5.2 1-1.7zm72.3 46.6l1-1.7 8.6 5.3-1.1 1.7zm-56.5 14.5l1.7 0.9-4.5 8.9-1.8-0.9zm43.6-85.5l1.8 0.9-4.6 8.9-1.7-0.9zm-61.1 27.3l-0.9 1.7-8.9-4.5 0.9-1.8zm75.7 40.8l0.9-1.7 9 4.5-1 1.8zm-61.1 15.7l1.7 1.1-5.3 8.5-1.7-1.1zm50.2-81.8l1.7 1-5.2 8.6-1.7-1.1zm-63 22.4l-1 1.7-8.6-5.2 1.1-1.7zm72.3 46.6l1-1.7 8.5 5.2-1 1.7zm-62.2 10.9l1.6 1.2-5.9 8.1-1.6-1.2zm56.4-77.7l1.6 1.2-5.9 8.1-1.6-1.2zm-64.5 17.4l-1.2 1.6-8.1-5.8 1.2-1.7zm68.4 52.2l1.2-1.6 8.1 5.9-1.2 1.6zm-62.9 6l1.5 1.2-6.5 7.7-1.5-1.3zm62.3-73l1.6 1.3-6.5 7.6-1.5-1.3zm-65.8 12.2l-1.3 1.5-7.6-6.4 1.3-1.6zm64.1 57.4l1.3-1.5 7.6 6.5-1.3 1.5zm-58.1 5.5l1.6 1.2-5.8 8.1-1.7-1.2zm56.5-77.7l1.6 1.2-5.9 8.1-1.6-1.2zm-64.6 17.4l-1.1 1.6-8.1-5.9 1.1-1.6zm68.4 52.2l1.2-1.6 8.1 5.9-1.2 1.6zm-62.8 5.9l1.5 1.3-6.5 7.6-1.5-1.3zm62.3-73l1.5 1.3-6.5 7.6-1.5-1.3zm-65.7 12.3l-1.3 1.5-7.6-6.5 1.3-1.5zm64.1 57.4l1.3-1.5 7.6 6.5-1.3 1.5zm-63.2 1l1.5 1.4-7.1 7.1-1.4-1.4zm67.8-67.9l1.5 1.4-7.1 7.1-1.4-1.4zm-66.5 7l-1.4 1.4-7.1-7 1.4-1.4zm59.4 62.2l1.4-1.4 7.1 7-1.4 1.5zm-63-4l1.3 1.5-7.6 6.5-1.3-1.5zm73-62.3l1.3 1.5-7.6 6.5-1.3-1.6zm-66.9 1.9l-1.5 1.3-6.5-7.6 1.5-1.3zm54.4 66.7l1.5-1.3 6.5 7.6-1.5 1.3zm-58.3-3.7l1.4 1.4-7.1 7.1-1.4-1.4zm67.9-67.9l1.4 1.4-7.1 7.1-1.4-1.4zm-66.4 7.1l-1.5 1.4-7-7.1 1.4-1.4zm59.4 62.2l1.4-1.4 7.1 7.1-1.4 1.4zm-63.1-4l1.3 1.6-7.6 6.5-1.3-1.6zm73-62.3l1.3 1.5-7.6 6.5-1.3-1.5zm-66.8 1.8l-1.5 1.3-6.5-7.6 1.5-1.3zm54.3 66.7l1.5-1.3 6.5 7.6-1.5 1.3zm-62.5-8.9l1.1 1.6-8 5.9-1.2-1.6zm77.6-56.4l1.2 1.6-8.1 5.9-1.1-1.6zm-66.8-3.5l-1.6 1.2-5.9-8.1 1.6-1.1zm49 70.7l1.6-1.2 5.9 8.1-1.7 1.2zm-61.6-13.8l1 1.7-8.5 5.3-1-1.7zm81.8-50.2l1.1 1.7-8.6 5.2-1-1.7zm-66.3-8.6l-1.7 1-5.2-8.5 1.7-1zm43.2 74.3l1.7-1 5.2 8.5-1.7 1.1zm-57-12.8l1.2 1.7-8.1 5.8-1.1-1.6zm77.6-56.4l1.2 1.6-8.1 5.9-1.2-1.6zm-66.7-3.5l-1.6 1.2-5.9-8.1 1.6-1.1zm48.9 70.7l1.6-1.2 5.9 8.1-1.6 1.2zm-61.7-13.8l1.1 1.7-8.5 5.3-1.1-1.7zm81.9-50.2l1 1.7-8.5 5.2-1-1.7zm-66.3-8.6l-1.7 1-5.3-8.5 1.7-1zm43.3 74.3l1.7-1 5.2 8.5-1.7 1.1zm-60.4-18.6l0.9 1.8-8.9 4.5-0.9-1.8zm85.5-43.5l1 1.7-9 4.6-0.9-1.8zm-65.4-13.8l-1.7 0.9-4.6-8.9 1.8-0.9zm37.3 77.5l1.7-0.9 4.6 8.9-1.8 0.9zm-58.7-23.2l0.7 1.8-9.2 3.9-0.8-1.9zm88.7-36.7l0.8 1.8-9.3 3.8-0.7-1.8zm-64.1-18.9l-1.9 0.8-3.8-9.3 1.8-0.7zm31.1 80.2l1.8-0.8 3.9 9.3-1.9 0.7zm-54.3-21.5l0.9 1.8-8.9 4.6-0.9-1.8zm85.5-43.6l1 1.8-9 4.5-0.9-1.8zm-65.4-13.8l-1.7 0.9-4.6-8.9 1.8-0.9zm37.3 77.5l1.7-0.9 4.6 8.9-1.8 1zm-58.7-23.3l0.7 1.9-9.2 3.8-0.8-1.9zm88.7-36.7l0.8 1.9-9.3 3.8-0.7-1.9zm-64.1-18.9l-1.9 0.8-3.8-9.2 1.8-0.8zm31.1 80.2l1.8-0.8 3.9 9.3-1.9 0.7zm-56.7-27.7l0.6 1.9-9.5 3.1-0.6-1.9zm91.3-29.7l0.6 1.9-9.5 3.1-0.6-1.9zm-62.5-23.9l-1.9 0.6-3.1-9.5 1.9-0.6zm24.7 82.4l1.9-0.6 3.1 9.5-1.9 0.6zm-54.4-32.1l0.5 1.9-9.7 2.4-0.5-2zm93.3-22.4l0.5 2-9.7 2.3-0.5-2zm-60.3-28.7l-2 0.5-2.3-9.7 1.9-0.5zm18.2 84.1l1.9-0.5 2.3 9.8-1.9 0.4zm-50.3-29.7l0.6 1.9-9.5 3.1-0.6-1.9zm91.3-29.6l0.6 1.9-9.5 3-0.6-1.9zm-62.4-23.8l-1.9 0.6-3.1-9.5 1.9-0.6zm24.6 82.4l1.9-0.7 3.1 9.6-1.9 0.6zm-54.3-32.2l0.4 2-9.7 2.3-0.5-1.9zm93.4-22.4l0.4 1.9-9.7 2.3-0.4-1.9zm-60.4-28.7l-2 0.5-2.3-9.8 2-0.4zm18.1 84.1l1.9-0.5 2.4 9.7-2 0.5zm-51.7-36.3l0.3 2-9.8 1.5-0.4-2zm94.9-15l0.3 2-9.9 1.6-0.3-2zm-57.9-33.4l-2 0.4-1.6-9.9 2-0.3zm11.5 85.2l1.9-0.3 1.6 9.9-2 0.3zm-48.6-40.3l0.1 2-10 0.8-0.1-2zm95.7-7.5l0.1 2-9.9 0.8-0.2-2zm-55.1-37.8l-2 0.1-0.8-9.9 2-0.2zm4.8 85.9l1.9-0.1 0.8 9.9-2 0.2zm-45-37.2l0.3 2-9.8 1.5-0.3-2zm94.8-15l0.3 2-9.9 1.6-0.3-2zm-57.9-33.4l-2 0.4-1.6-9.9 2-0.3zm11.5 85.2l2-0.3 1.5 9.9-2 0.3zm-48.6-40.3l0.1 2-10 0.8-0.1-2zm95.7-7.5l0.2 2-10 0.8-0.2-2zm-55.1-37.8l-2 0.1-0.8-9.9 2-0.2zm4.8 85.9l2-0.1 0.7 9.9-2 0.2z"/>
	<path id="W" class="s1" aria-label="W"  d="m16.4 58h-1.3l-2.8-10.2h1.3l2.1 8.3h0.1l2.1-8.3h1.4l2.2 8.3h0.1l2.1-8.3h1.3l-2.8 10.2h-1.3l-2.2-8.1h-0.1z"/>
	<path id="N" class="s1" aria-label="N"  d="m56.1 12.8h1.2v10.2h-1.2l-5.5-8h-0.1v8h-1.3v-10.2h1.2l5.6 8h0.1z"/>
	<path id="S" class="s1" aria-label="S"  d="m57 86.4h-1.2q-0.1-0.8-0.7-1.2-0.7-0.4-1.6-0.4-0.7 0-1.2 0.2-0.5 0.2-0.8 0.6-0.2 0.4-0.2 0.9 0 0.4 0.2 0.7 0.2 0.3 0.5 0.4 0.3 0.2 0.6 0.4 0.4 0.1 0.6 0.2l1.1 0.2q0.4 0.1 0.9 0.3 0.4 0.2 0.9 0.5 0.4 0.3 0.7 0.8 0.3 0.5 0.3 1.2 0 0.9-0.4 1.5-0.4 0.7-1.3 1.1-0.8 0.4-1.9 0.4-1.1 0-1.9-0.4-0.8-0.3-1.3-1-0.4-0.6-0.5-1.4h1.3q0 0.6 0.4 0.9 0.3 0.4 0.8 0.6 0.5 0.2 1.2 0.2 0.7 0 1.2-0.3 0.6-0.2 0.9-0.6 0.3-0.4 0.3-1 0-0.5-0.2-0.8-0.3-0.3-0.8-0.5-0.5-0.2-1-0.4l-1.2-0.3q-1.2-0.4-1.9-1-0.7-0.6-0.7-1.7 0-0.8 0.4-1.5 0.5-0.6 1.3-1 0.8-0.3 1.8-0.3 0.9 0 1.7 0.3 0.8 0.4 1.2 1 0.5 0.6 0.5 1.4z"/>
	<path id="E" class="s1" aria-label="E"  d="m92.5 58h-6.3v-10.2h6.2v1.1h-4.9v3.5h4.6v1h-4.6v3.5h5z"/>
	<path transform="rotate(45 53 53)" id="Shape 2" class="s2" d="m53 1l5.2 9h-10.4zm-1 5.7h2v93.9h-2zm1 98.3c-1.7 0-3-1.3-3-3 0-1.6 1.3-3 3-3 1.7 0 3 1.4 3 3 0 1.7-1.3 3-3 3z"/>
</svg>
