<svg version="1.2" xmlns="http://www.w3.org/2000/svg" viewBox="0 0 118 118" width="118" height="118">
	<title>New Project</title>
	<style>
		.s0 { fill: #24609b }
		.s1 { fill: #ffffff;stroke: #24609b;stroke-width: 3 }
		.s3 { fill: #c4e2ff }
	</style>
	<path id="Shape 2" class="s3" d="m58 4h2v10h-2zm4.6 0.1l2 0.2-0.8 9.9-2-0.1zm4.7 0.4l1.9 0.4-1.5 9.8-2-0.3zm4.6 0.8l1.9 0.5-2.3 9.7-2-0.4zm4.5 1.1l1.9 0.7-3.1 9.5-1.9-0.6zm4.4 1.5l1.8 0.8-3.8 9.2-1.8-0.8zm4.2 1.9l1.8 0.9-4.6 8.9-1.7-0.9zm4 2.2l1.7 1-5.2 8.6-1.7-1.1zm3.9 2.5l1.6 1.2-5.9 8.1-1.6-1.2zm3.7 2.8l1.5 1.3-6.5 7.6-1.5-1.3zm3.5 3.1l1.4 1.4-7.1 7.1-1.4-1.4zm3.2 3.3l1.3 1.6-7.6 6.5-1.3-1.6zm2.9 3.6l1.2 1.6-8.1 5.9-1.2-1.6zm-87.3 63.5l1.1 1.6-8 5.9-1.2-1.6zm90-59.7l1 1.7-8.5 5.2-1-1.7zm-92.1 56.4l1 1.8-8.5 5.2-1-1.7zm94.4-52.5l0.9 1.8-8.9 4.6-0.9-1.8zm-96.3 49l0.9 1.8-8.9 4.5-0.9-1.7zm98.3-44.9l0.7 1.8-9.2 3.9-0.8-1.9zm-99.8 41.4l0.8 1.8-9.2 3.8-0.8-1.8zm101.5-37l0.6 1.9-9.5 3.1-0.7-1.9zm-102.7 33.3l0.7 1.9-9.6 3.1-0.6-1.9zm104.1-28.9l0.4 1.9-9.7 2.4-0.5-2zm-105 25.2l0.5 2-9.7 2.3-0.5-1.9zm106-20.7l0.3 2-9.9 1.5-0.3-1.9zm-106.6 16.8l0.3 2-9.9 1.6-0.3-2zm107.3-12.3l0.1 2-9.9 0.8-0.2-2zm-107.7 8.5l0.2 2-10 0.7-0.1-2zm107.9-3.8v2h-10v-2zm-108 0v2h-10v-2zm107.9 4.6l-0.2 2-9.9-0.8 0.1-2zm-107.6-8.4l-0.2 2-10-0.8 0.2-2zm107.2 13.1l-0.3 1.9-9.9-1.5 0.3-2zm-106.7-16.9l-0.3 2-9.8-1.6 0.3-1.9zm105.8 21.4l-0.5 1.9-9.7-2.3 0.5-1.9zm-105-25.2l-0.5 1.9-9.7-2.3 0.4-2zm103.9 29.7l-0.6 1.9-9.6-3.1 0.7-1.9zm-102.7-33.3l-0.7 1.9-9.5-3.1 0.6-1.9zm101.2 37.7l-0.7 1.9-9.3-3.9 0.8-1.8zm-99.8-41.3l-0.8 1.8-9.2-3.8 0.8-1.9zm97.9 45.6l-0.9 1.8-8.9-4.6 0.9-1.7zm-96.3-49.1l-0.9 1.8-8.9-4.5 0.9-1.8zm94.1 53.1l-1.1 1.7-8.5-5.2 1-1.7zm-92-56.5l-1.1 1.7-8.5-5.2 1-1.7zm89.6 60.3l-1.2 1.7-8.1-5.9 1.2-1.6zm-87.4-63.5l-1.1 1.6-8.1-5.9 1.2-1.6zm2.4-3l-1.3 1.6-7.6-6.5 1.3-1.6zm2.7-2.7l-1.5 1.4-7-7.1 1.4-1.4zm2.9-2.6l-1.6 1.3-6.4-7.6 1.5-1.3zm2.9-1.7l-1.7 1.2-5.8-8.1 1.6-1.2zm3.2-2.1l-1.7 1.1-5.2-8.5 1.7-1.1zm3.4-1.8l-1.8 0.9-4.5-8.9 1.7-0.9zm3.6-1.5l-1.9 0.7-3.8-9.2 1.8-0.8zm3.7-1.2l-1.9 0.6-3.1-9.5 1.9-0.7zm3.7-0.9l-1.9 0.4-2.4-9.7 2-0.4zm3.8-0.7l-2 0.3-1.6-9.9 2-0.3zm3.8-0.4l-2 0.2-0.7-10 2-0.1z"/>
	<g transform="rotate(-125 59 63)">
		<path id="Shape 7" class="s0" d="m57 26.2h4v32.8h-4z"/>
		<path id="Shape 6" class="s0" d="m59 19l5.2 9h-10.4z"/>
		<path id="Shape 3" class="s1" d="m59 69c-3.3 0-6-2.7-6-6 0-3.3 2.7-6 6-6 3.3 0 6 2.7 6 6 0 3.3-2.7 6-6 6z"/>
		<path id="Shape 4" class="s0" d="m57 1h4v14h-4z"/>
		<path id="Shape 5" class="s0" d="m57 68h4v10h-4z"/>
	</g>
</svg>
